{"title":"Ray Donovan S01E02 720p x264 [MKV,AC3,5.1] Ehhhh","uid":8709464,"size":565642060,"categoryP":"video","categoryS":"hd___tv_shows","magnet":"?xt=urn:btih:51353efe226af766bae35c36db77edcb15455222&amp;dn=Ray+Donovan+S01E02+720p+x264+%5BMKV%2CAC3%2C5.1%5D+Ehhhh&amp;tr=udp%3A%2F%2Ftracker.openbittorrent.com%3A80&amp;tr=udp%3A%2F%2Fopen.demonii.com%3A1337&amp;tr=udp%3A%2F%2Ftracker.coppersurfer.tk%3A6969&amp;tr=udp%3A%2F%2Fexodus.desync.com%3A6969","seeders":1,"leechers":1,"uploader":"Ehhhhtozebec","files":-1,"time":1374204954,"description":"image\nSet in the sprawling mecca of the rich and famous, RAY DONOVAN does the dirty work for LA's top power players. The new one-hour series stars Emmy and Golden Globe Award nominee Liev Schreiber in his first lead television role as the go-to guy who makes the problems of the city's celebrities, superstar athletes, and business moguls disappear. This powerful drama unfolds when his father, played by Oscar winner Jon Voight, is unexpectedly released from prison, setting off a chain of events that shakes the Donovan family to its core.\n\nMain Cast\n\nLiev Schreiber\nPaula Malcomson\nEddie Marsan\nDash Mihok\nSteven Bauer\nKatherine Moennig\nPooch Hall\nKerris Dorsey\nDevon Bagby\nJon Voight\n\nRecurring Cast\n\nJames Woods\nRosanna Arquette\nElliot Gould\nimage\nimage\n\nGeneral\n\nFormat : Matroska\nFormat version : Version 4 / Version 2\nFile size : 538 MiB\nDuration : 53mn 56s\nOverall bit rate : 1 396 Kbps\nEncoded date : UTC 2013-07-18 20:02:15\nWriting application : mkvmerge v6.2.0 ('Promised Land') built on Apr 28 2013 12:22:01\nWriting library : libebml v1.3.0 + libmatroska v1.4.0\n\nVideo\nID : 1\nFormat : AVC\nFormat/Info : Advanced Video Codec\nFormat profile : &lt;a class=&quot;__cf_email__&quot; href=&quot;/cdn-cgi/l/email-protection&quot; data-cfemail=&quot;fcb4959b94bcb0c8d2cd&quot;&gt;[email&amp;#160;protected]&lt;/a&gt;&lt;script cf-hash='f9e31' type=&quot;text/javascript&quot;&gt;\n/* &lt;![CDATA[ */!function(){try{var t=&quot;currentScript&quot;in document?document.currentScript:function(){for(var t=document.getElementsByTagName(&quot;script&quot;),e=t.length;e--;)if(t[e].getAttribute(&quot;cf-hash&quot;))return t[e]}();if(t&amp;&amp;t.previousSibling){var e,r,n,i,c=t.previousSibling,a=c.getAttribute(&quot;data-cfemail&quot;);if(a){for(e=&quot;&quot;,r=parseInt(a.substr(0,2),16),n=2;a.length-n;n+=2)i=parseInt(a.substr(n,2),16)^r,e+=String.fromCharCode(i);e=document.createTextNode(e),c.parentNode.replaceChild(e,c)}}}catch(u){}}();/* ]]&gt; */&lt;/script&gt;\nFormat settings, CABAC : Yes\nFormat settings, ReFrames : 14 frames\nCodec ID : V_MPEG4/ISO/AVC\nDuration : 53mn 56s\nBit rate : 1 010 Kbps\nWidth : 1 280 pixels\nHeight : 720 pixels\nDisplay aspect ratio : 16:9\nFrame rate mode : Constant\nFrame rate : 23.976 fps\nColor space : YUV\nChroma subsampling : 4:2:0\nBit depth : 8 bits\nScan type : Progressive\nBits/(Pixel*Frame) : 0.046\nStream size : 380 MiB (70%)\nWriting library : x264 core 130 r2273 b3065e6\n\nAudio\nID : 2\nFormat : AC-3\nFormat/Info : Audio Coding 3\nMode extension : CM (complete main)\nFormat settings, Endianness : Big\nCodec ID : A_AC3\nDuration : 53mn 56s\nBit rate mode : Constant\nBit rate : 384 Kbps\nChannel(s) : 6 channels\nChannel positions : Front: L C R, Side: L R, LFE\nSampling rate : 48.0 KHz\nBit depth : 16 bits\nCompression mode : Lossy\nStream size : 148 MiB (28%)\nDefault : Yes\nForced : No\n\n","torrent":{"xt":"urn:btih:51353efe226af766bae35c36db77edcb15455222","amp;dn":"Ray+Donovan+S01E02+720p+x264+%5BMKV%2CAC3%2C5.1%5D+Ehhhh","amp;tr":["udp%3A%2F%2Ftracker.openbittorrent.com%3A80","udp%3A%2F%2Fopen.demonii.com%3A1337","udp%3A%2F%2Ftracker.coppersurfer.tk%3A6969","udp%3A%2F%2Fexodus.desync.com%3A6969"],"infoHash":"51353efe226af766bae35c36db77edcb15455222","infoHashBuffer":{"type":"Buffer","data":[81,53,62,254,34,106,247,102,186,227,92,54,219,119,237,203,21,69,82,34]},"announce":[],"urlList":[]}}